PathFileType	4	(X/Y/Z)	C:/Users/beibeiliu/ov580/test_trc\sequence.30_training_dense_left.trc
DataRate	CameraRate	NumFrames	NumMarkers	Units	OrigDataRate	OrigDataStartFrame	OrigNumFrames
120	120	14	19	mm	120	59	88
Frame#	Time	ThumbCMC			ThumbMCP			ThumbIP			ThumbTip			IndexMCP			IndexPIP			IndexTip			MiddleMCP			MiddlePIP			MiddleTip			RingMCP			RingPIP			RingTip			PinkyMCP			PinkyPIP			PinkyTip			BackHand1			BackHand2			BackHand3	
		X0	Y0	Z0	X1	Y1	Z1	X2	Y2	Z2	X3	Y3	Z3	X4	Y4	Z4	X5	Y5	Z5	X6	Y6	Z6	X7	Y7	Z7	X8	Y8	Z8	X9	Y9	Z9	X10	Y10	Z10	X11	Y11	Z11	X12	Y12	Z12	X13	Y13	Z13	X14	Y14	Z14	X15	Y15	Z15	X16	Y16	Z16	X17	Y17	Z17	X18	Y18	Z18	
58	0.483333	-207.7	42.9419	23.6452	-194.68	65.1291	18.5	-187.663	82.8803	8.85992	-184.6	100.232	-0.476595	-152.068	54.5704	-16.4408	-134.652	67.3408	-21.9222	-114.681	83.2397	-29.8377	-133.259	47.3917	0.321383	-116.526	71.0824	11.8856	-108.7	89.6574	31.0188	-130.424	39.7262	19.8967	-138.851	56.8848	42.441	-162.17	50.3582	47.2006	-128.755	27.6428	34.216	-141.168	44.7542	47.1805	-167.891	35.5585	45.0208	-164.26	7.16106	13.3858	-187.727	-5.84282	28.9862	-190.153	16.0038	8.68199	
59	0.491667	-202.136	30.972	23.9073	-195.918	55.2511	13.8886	-193.385	72.6999	1.06081	-192.676	89.0126	-10.7921	-153.536	52.312	-27.5175	-142.462	68.5617	-37.9124	-129.439	79.1586	-44.8671	-130.71	52.8117	-8.84847	-123.635	75.8976	-4.49464	-117.216	97.5529	14.878	-125.907	49.5712	12.5868	-140.124	64.3645	31.4779	-160.24	46.639	41.5139	-121.881	35.5447	26.4337	-139.278	50.718	41.7601	-156.226	36.6967	39.5904	-149.399	1.42716	18.1738	-167.285	-11.228	32.3159	-181.755	8.63911	8.85752	
60	0.5	-193.055	22.8462	22.4972	-190.183	44.9755	8.72268	-192.357	62.941	-10.9605	-194.2	73.4491	-21.912	-153.635	36.4137	-31.4062	-143.557	50.9059	-47.4444	-131.821	66.5036	-64.8706	-133.24	47.475	-22.1427	-125.14	71.215	-19.7893	-126.077	101.473	-6.4063	-121.917	47.9465	0.00941185	-133.456	65.2238	19.2723	-152.05	50.4756	30.2979	-115.987	40.1024	14.5136	-129.453	55.095	29.1302	-148.841	38.981	35.4319	-138.507	2.90207	12.1602	-154.991	-11.0192	35.5573	-166.233	1.16935	12.999	
61	0.508333	-185.546	20.8078	19.8469	-185.777	40.4822	2.61421	-188.786	52.2553	-16.1846	-194.471	61.8525	-32.8318	-149.623	22.7092	-37.2253	-142.376	34.6315	-57.4819	-138.564	46.1329	-77.1174	-130.259	38.0844	-31.5957	-123.591	64.7366	-33.529	-125.332	91.8794	-24.4854	-116.532	40.0714	-9.52888	-129.863	61.5982	3.5273	-143.802	46.4321	23.7046	-107.363	38.9169	4.38874	-124.626	54.2671	15.2103	-140.896	37.5342	23.3087	-130.173	-0.559166	10.9456	-143.939	-8.97543	34.6565	-165.338	-4.98029	13.1591	
62	0.516667	-180.287	21.3115	18.9202	-178.163	34.7934	-7.23063	-180.005	40.9308	-24.0546	-185.984	45.8835	-44.7474	-150.538	7.3109	-43.8077	-145.173	13.2689	-62.4004	-135.608	21.8647	-85.2183	-130.029	19.7448	-37.8772	-124.077	47.5431	-48.3694	-118.592	73.9826	-42.2001	-114.968	28.6194	-20.3719	-125.44	51.3137	-12.0914	-139.666	40.9854	13.1206	-105.268	25.9634	-6.52668	-118.048	46.561	1.80737	-136.547	34.0229	18.0014	-132.908	-8.81464	14.4959	-143.725	-8.46121	37.0306	-161.491	-6.79992	15.751	
63	0.525	-178.027	22.1884	16.0165	-175.885	30.1465	-10.117	-177.232	31.1257	-30.8573	-181.478	33.6267	-50.8879	-157.584	-6.68875	-42.2135	-149.695	-4.60265	-65.1553	-142.763	-1.54191	-87.1758	-132.7	1.85697	-40.8079	-124.479	22.3967	-54.2235	-118.237	52.3597	-53.6686	-119.488	6.85804	-24.1622	-123.392	35.2855	-19.6716	-135.275	33.7337	4.8643	-109.84	4.975	-11.5563	-113.698	31.1148	-7.48818	-136.047	25.7284	8.40901	-140.195	-15.6332	14.8469	-144.935	-12.622	42.7686	-168.045	-10.4027	16.5076	
64	0.533333	-178.964	20.7851	13.4907	-174.996	28.2846	-11.9263	-178.591	24.3785	-38.8731	-178.421	24.4409	-54.0662	-168.005	-18.7412	-41.368	-160.614	-20.6421	-63.5497	-155.741	-20.5241	-81.8643	-146.575	-17.2759	-39.648	-127.829	-0.0979107	-55.4564	-113.646	25.3722	-56.7694	-125.938	-13.2206	-24.6915	-122.893	14.1614	-23.5864	-138.701	20.5961	-0.0187971	-120.515	-14.6265	-11.1866	-117.78	10.5057	-11.9121	-133.951	16.6526	7.42403	-152.945	-24.7735	19.2042	-158.363	-13.1857	43.2257	-178.344	-7.98037	19.2768	
65	0.541667	-186.381	19.4913	11.9106	-182.197	17.9566	-17.858	-181.136	16.7	-35.8102	-184.383	14.399	-55.4561	-189.607	-24.943	-34.7349	-179.219	-32.4612	-57.7869	-173.747	-39.1611	-79.3346	-167.081	-32.5642	-35.8226	-143.531	-25.4245	-51.2993	-123.224	-8.80253	-55.521	-149.539	-30.8472	-22.9173	-136.203	-7.21062	-22.7605	-144.936	5.09451	-0.407703	-139.59	-35.1952	-9.38218	-128.686	-14.6446	-10.4764	-147.376	0.949216	1.74679	-174.258	-30.1596	24.7071	-176.675	-20.9397	45.707	-193.785	-10.8019	23.9822	
66	0.55	-199.665	16.9032	11.4665	-196.436	15.5685	-15.7501	-198.313	7.46232	-37.5684	-201.118	7.32185	-56.0273	-216.274	-28.6128	-30.6422	-210.535	-38.6929	-52.3045	-206.675	-47.699	-73.7288	-194.835	-44.6381	-30.9905	-178.875	-41.8412	-49.4745	-148.385	-29.597	-56.213	-177.132	-46.3947	-18.7203	-156.433	-28.699	-22.3355	-160.961	-9.44363	-4.81362	-170.261	-54.1029	-1.96868	-155.858	-35.709	-12.4265	-159.46	-15.3106	3.16809	-200.829	-34.7062	28.9286	-196.455	-22.3209	48.0497	-214.081	-10.0542	27.2895	
67	0.558333	-214.872	14.5092	12.1915	-212.281	10.3747	-14.3714	-219.347	5.72727	-37.6734	-224.094	0.108052	-54.7958	-244.655	-29.0067	-25.8398	-244.901	-36.9734	-47.5857	-245.961	-45.9479	-68.9525	-228.417	-46.7371	-26.2155	-211.021	-50.6666	-48.43	-185.003	-47.7229	-58.1747	-211.172	-53.3376	-16.8774	-186.957	-38.2803	-22.5268	-185.376	-20.1096	-3.91655	-200.997	-61.705	-4.9674	-183.89	-45.59	-11.8037	-188.022	-24.6063	3.67086	-227.078	-37.6086	31.7332	-217.784	-23.8786	48.3523	-232.699	-9.05149	29.1988	
68	0.566667	-220.293	14.0889	13.0674	-220.771	10.6606	-15.0527	-228.956	7.2775	-33.3035	-234.472	8.35508	-54.2154	-267.231	-13.6175	-28.2894	-272.62	-23.0733	-50.96	-274.603	-32.3363	-68.4121	-257.963	-37.0452	-27.6546	-244.276	-45.9919	-47.998	-218.849	-48.304	-62.1511	-243.521	-47.1681	-17.9459	-215.884	-43.0983	-25.0716	-204.279	-30.0431	-5.42009	-234.254	-61.915	-5.54503	-213.645	-48.1991	-13.6025	-211.506	-28.3616	1.27222	-251.788	-31.599	27.3881	-238.209	-23.892	50.7255	-246.16	-4.33773	28.718	
69	0.575	-218.472	11.682	15.7141	-220.5	11.8584	-15.2793	-225.58	15.4169	-36.0408	-227.021	17.9051	-53.9984	-267.907	13.8918	-32.4855	-275.478	4.98251	-54.8315	-279.912	-2.03945	-73.9761	-268.967	-15.4209	-34.6075	-259.639	-27.5162	-53.0874	-233.277	-40.9289	-65.0416	-260.477	-33.6245	-22.0002	-234.913	-39.594	-27.2979	-220.66	-27.0862	-6.00786	-258.791	-46.8643	-11.8684	-234.38	-41.8765	-15.4826	-224.762	-28.4756	2.08148	-265.329	-15.1661	27.3442	-248.819	-14.8123	50.1655	-248.658	8.60798	27.7892	
70	0.583333	-207.349	14.3506	15.0096	-209.128	12.2192	-12.0519	-208.114	18.4722	-35.7418	-207.216	23.5654	-54.0145	-248.001	35.6995	-36.6169	-252.198	33.9169	-56.0961	-260.582	25.2552	-82.2865	-257.294	12.7851	-38.8871	-252.879	-5.80799	-58.4655	-232.763	-26.0476	-66.5985	-262.247	-10.1877	-28.0508	-235.49	-24.7913	-27.7847	-226.159	-19.1888	-0.984721	-265.925	-24.3201	-18.863	-244.372	-33.0881	-16.3338	-232.059	-15.863	3.671	-266.161	8.03948	18.4201	-248.967	4.52209	42.8891	-238.751	22.7434	24.9561	
71	0.591667	-192.889	18.2615	14.7576	-185.371	12.799	-8.49403	-184.977	19.229	-31.8837	-176.43	21.9984	-50.7498	-218.298	46.6165	-39.3031	-218.237	46.2065	-63.2182	-221.451	42.7796	-87.0648	-232.047	31.8801	-43.6187	-226.74	11.6895	-63.1206	-217.158	-19.6877	-65.3347	-241.083	10.63	-35.6979	-229.019	-10.0682	-32.5748	-220.082	-8.18058	-1.23065	-256.375	4.33144	-23.0575	-236.311	-13.0719	-19.8677	-223.882	-3.31338	3.22415	-247.894	32.0678	9.82654	-240.648	23.9282	37.1729	-216.621	37.6373	20.6046	
